# xmcd
#
# Track frame offsets:
#	150
#	10800
#	30825
#	41775
#	53250
#	61725
#	70125
#	92850
#	103650
#	110550
#	122400
#	135675
#	144225
#	150600
#	161250
#	169125
#	178650
#	187050
#	194250
#	202050
#	211800
#
# Disc length: 3100 seconds
#
# Revision: 1
# Processed by: cddbd v1.5.1PL0 Copyright (c) Steve Scherf et al.
# Submitted via: CDex 1.50Beta5
#
DISCID=190c1a15
DTITLE=中川幸太郎 - プラネテス O.S.T.
DYEAR=2003
DGENRE=Soundtrack
TTITLE0=中川幸太郎/Outside Atmosphere
TTITLE1=酒井ミキオ/Dive In The Sky
TTITLE2=中川幸太郎/Jupiter Highway
TTITLE3=中川幸太郎/Urgent Mission
TTITLE4=中川幸太郎/Floating Ruin
TTITLE5=やの雪・中川幸太郎/Music For Universe
TTITLE6=hitomi/A Secret Of The Moon
TTITLE7=中川幸太郎/My Address
TTITLE8=中川幸太郎/Work With Dance
TTITLE9=中川幸太郎/Circular Style
TTITLE10=中川幸太郎/True Stories
TTITLE11=中川幸太郎/My First Experience
TTITLE12=中川幸太郎/Paradise And Cola
TTITLE13=中川幸太郎/Terrible Workplace
TTITLE14=中川幸太郎/FB
TTITLE15=中川幸太郎/The Enterprise
TTITLE16=中川幸太郎/Fate Of Man
TTITLE17=中川幸太郎/Turn Into Space
TTITLE18=中川幸太郎/There Is No
TTITLE19=中川幸太郎/Our World
TTITLE20=酒井ミキオ/Wonderful Life
EXTD=
EXTT0=
EXTT1=
EXTT2=
EXTT3=
EXTT4=
EXTT5=
EXTT6=
EXTT7=
EXTT8=
EXTT9=
EXTT10=
EXTT11=
EXTT12=
EXTT13=
EXTT14=
EXTT15=
EXTT16=
EXTT17=
EXTT18=
EXTT19=
EXTT20=
PLAYORDER=
